<svg xmlns="http://www.w3.org/2000/svg" width="775.483" height="697" viewBox="0 0 775.483 697">
  <g id="Group_1" data-name="Group 1" transform="translate(-211 -199.518)">
    <path id="Path_48" data-name="Path 48" d="M695.666,259.879c-14.259-21.653-42.469-22.662-42.469-22.662s-27.489-3.159-45.123,29.819c-7.873,14.724-20.922,41.351-20.922,41.351s-1.209,22.512,17.271,26.261l6.407-17.921,3.968,19.255q7.575.49,15.176.233c37.984-1.1,74.158.322,72.993-11.928C701.417,308,709.386,280.714,695.666,259.879Z" transform="translate(250.009 -37.617)" fill="#2f2e41"/>
    <g id="Component_1_1" data-name="Component 1 – 1" transform="translate(211 199.518)">
      <g id="undraw_link_shortener_mvf6">
        <rect id="Rectangle_1" data-name="Rectangle 1" width="436.461" height="234" transform="translate(81.257 297.5)" fill="#f4efd9"/>
        <path id="Path_1" data-name="Path 1" d="M261.134,348.568c12.428,23.049,38.806,32.944,38.806,32.944s6.227-27.475-6.2-50.524-38.806-32.944-38.806-32.944S248.706,325.519,261.134,348.568Z" transform="translate(-219.5 -103.355)" fill="#f0e089"/>
        <path id="Path_2" data-name="Path 2" d="M269.677,340.985c22.438,13.5,31.08,40.314,31.08,40.314s-27.738,4.927-50.177-8.573-31.08-40.314-31.08-40.314S247.238,327.485,269.677,340.985Z" transform="translate(-219.5 -103.355)" fill="#e0a5c7"/>
        <path id="Path_3" data-name="Path 3" d="M980.5,723.355c0,24.3-57.755,77-129,77s-129-52.7-129-77,57.755-11,129-11S980.5,699.055,980.5,723.355Z" transform="translate(-205.017 -103.355)" fill="#3f3d56"/>
        <path id="Path_4" data-name="Path 4" d="M980.5,723.355c0,24.3-57.755,77-129,77s-129-52.7-129-77,57.755-11,129-11S980.5,699.055,980.5,723.355Z" transform="translate(-205.017 -103.355)" fill="rgba(12,114,24,0.99)" opacity="0.1"/>
        <ellipse id="Ellipse_1" data-name="Ellipse 1" cx="129" cy="44" rx="129" ry="44" transform="translate(517.483 576)" fill="#dbd7c7"/>
        <ellipse id="Ellipse_2" data-name="Ellipse 2" cx="39.5" cy="37" rx="39.5" ry="37" transform="translate(652.483)" fill="#2f2e41"/>
        <path id="Path_5" data-name="Path 5" d="M782,370.855l-10,14s-48,10-30,25,44-14,44-14l14-18Z" transform="translate(-208.757 -103.355)" fill="#967724"/>
        <path id="Path_7" data-name="Path 7" d="M834,211.855c-6.75-24.25-13,0-16,18s-6,78-6,78-42,55-35,62,15,20,20,18,48-61,48-61S840.75,236.105,834,211.855Z" transform="translate(-207.852 -103.355)" fill="#f7f3de" opacity="0.1"/>
        <path id="Path_6" data-name="Path 6" d="M834,211.855s-13,0-16,18-6,78-6,78-42,55-35,62,15,20,20,18,48-61,48-61Z" transform="translate(-207.852 -103.355)" fill="#f0e089"/>
        <path id="Path_8" data-name="Path 8" d="M874,160.855s-1,39-13,41-8,15-8,15,39,23,65,0l5-12s-18-13-10-31Z" transform="translate(-205.017 -103.355)" fill="#967724"/>
        <path id="Path_9" data-name="Path 9" d="M807,400.855s-59,110-37,144,55,104,60,104,33-14,31-23-32-76-40-82-4-22-3-23,34-54,34-54-1,84,3,97-1,106,4,110,28,11,32,5,16-97,8-118l15-144Z" transform="translate(-205.017 -103.355)" fill="#f0e089"/>
        <path id="Path_10" data-name="Path 10" d="M861,667.855l-25,46s-36,26-11,30,40-6,40-6l22-16v-46Z" transform="translate(-200.017 -103.355)" fill="#2f2e41"/>
        <path id="Path_11" data-name="Path 11" d="M827,641.855l13,31s5,13,0,16-19,21-10,23a29.3,29.3,0,0,0,5.5.546,55.566,55.566,0,0,0,40.4-16.439L884,687.855s-27.77-63.948-27.385-63.474S827,641.855,827,641.855Z" transform="translate(-205.017 -103.355)" fill="#2f2e41"/>
        <circle id="Ellipse_3" data-name="Ellipse 3" cx="34" cy="34" r="34" transform="translate(659.983 13.5)" fill="#967724"/>
        <path id="Path_12" data-name="Path 12" d="M918.5,198.355l-10.5,10.5s-32,12-47,0c0,0,5.5-11.5,5.5-10.5s-43.5,7.5-47.5,25.5,3,49,3,49-28,132-17,135,114,28,113,9,8-97,8-97l35-67s-5-22-17-29S918.5,198.355,918.5,198.355Z" transform="translate(-206.017 -103.355)" fill="#e0a5c7"/>
        <path id="Path_13" data-name="Path 13" d="M874,393.855l-13,8s-50,34-24,40,41-24,41-24l10-12Z" transform="translate(-205.017 -103.355)" fill="#967724"/>
        <path id="Path_14" data-name="Path 14" d="M948,246.855l9,9s6,84-6,101-67,63-70,60-22-18-18-20,57.183-57.569,57.183-57.569L916,261.855Z" transform="translate(-205.017 -103.355)" opacity="0.1"/>
        <path id="Path_15" data-name="Path 15" d="M952,243.855l9,9s6,84-6,101-67,63-70,60-22-18-18-20,57.183-57.569,57.183-57.569L920,258.855Z" transform="translate(-205.017 -103.355)" fill="#f0e089"/>
        <path id="Path_17" data-name="Path 17" d="M554.6,528.438q-1.26.794-2.607,1.474a30.877,30.877,0,0,1-41.426-13.649l-6.652-13.191,4.465-2.251,6.652,13.191a25.842,25.842,0,0,0,46.146-23.274l-27.936-55.394a25.842,25.842,0,1,0-46.146,23.274l9.891,19.612-4.465,2.251-9.891-19.612A30.842,30.842,0,0,1,537.7,433.093l27.936,55.394A30.847,30.847,0,0,1,554.6,528.438Z" transform="translate(-213.895 -103.355)" fill="#3f3d56"/>
        <path id="Path_18" data-name="Path 18" d="M557.3,596.81q-1.242.783-2.577,1.457A30.876,30.876,0,0,1,513.3,584.617L485.36,529.224a30.842,30.842,0,1,1,55.076-27.776L547.775,516l-4.465,2.251L535.971,503.7a25.842,25.842,0,1,0-46.146,23.274l27.936,55.394a25.842,25.842,0,0,0,46.146-23.274l-9.616-19.067,4.465-2.251,9.616,19.067A30.886,30.886,0,0,1,557.3,596.81Z" transform="translate(-213.836 -103.355)" fill="#3f3d56"/>
        <path id="Path_19" data-name="Path 19" d="M756.5,637.355h-462v-257h462Zm-460-2h458v-253h-458Z" transform="translate(-219.5 -103.355)" fill="#2f2e41"/>
      </g>
    </g>
    <path id="Path_49" data-name="Path 49" d="M643.063,224.6l-23.319-12.961-32.2,5.3-6.662,31.225,16.585-.677,4.633-11.472V247.3l7.652-.313,4.442-18.263,2.776,19.442,27.205-.589Z" transform="translate(291.759 -6.119)" fill="#2f2e41"/>
  </g>
</svg>
